<svg width="40" height="40" viewBox="0 0 40 40" fill="none" xmlns="http://www.w3.org/2000/svg">
<path d="M18.9453 18.2617C18.4922 18.4531 18.1289 18.7383 17.8594 19.1211C17.5898 19.5039 17.4531 19.9648 17.4531 20.5078C17.4531 21.2031 17.7461 21.7383 18.3281 22.1172C18.8789 22.4727 19.457 22.5625 20.0625 22.3828C20.7617 22.1797 21.2344 21.6836 21.4844 20.8945C21.6016 20.5312 21.6602 20.125 21.6602 19.6719V17.7109C21.168 17.7266 20.707 17.7734 20.2734 17.8555C19.8398 17.9375 19.3984 18.0742 18.9453 18.2617ZM20 2.5C10.3359 2.5 2.5 10.3359 2.5 20C2.5 29.6641 10.3359 37.5 20 37.5C29.6641 37.5 37.5 29.6641 37.5 20C37.5 10.3359 29.6641 2.5 20 2.5ZM21.3984 12.7617C21.1172 12.3359 20.6133 12.1211 19.8867 12.1211C19.8359 12.1211 19.7695 12.125 19.6797 12.1328C19.5938 12.1406 19.4219 12.1914 19.1758 12.2773C18.9286 12.3658 18.6937 12.4852 18.4766 12.6328C18.2617 12.7812 18.0273 13.0234 17.7734 13.3516C17.5234 13.6836 17.3242 14.0703 17.1758 14.5156L13.5039 14.1875C13.5039 13.7031 13.5977 13.2227 13.7773 12.7461C13.9609 12.2695 14.2383 11.8125 14.6133 11.3789C14.9883 10.9414 15.4375 10.5586 15.9609 10.2305C16.4844 9.89844 17.1172 9.63672 17.8516 9.4375C18.5898 9.23828 19.3789 9.14062 20.2305 9.14062C21.0625 9.14062 21.8164 9.24219 22.4883 9.44141C23.1602 9.64453 23.7031 9.89062 24.1055 10.1875C24.4931 10.4672 24.8345 10.8059 25.1172 11.1914C25.3867 11.5664 25.5742 11.9141 25.6797 12.2344C25.7852 12.5547 25.8359 12.8477 25.8359 13.125V20.2539C25.8359 20.5039 25.8906 20.7617 26.0039 21.0273C26.1172 21.293 26.25 21.5273 26.4023 21.7305C26.5547 21.9336 26.7109 22.1172 26.8711 22.2891C27.0312 22.457 27.168 22.5898 27.2852 22.6758L27.4453 22.8086L24.6133 25.5195C24.2812 25.2188 23.9531 24.918 23.6289 24.6055C23.3047 24.293 23.0625 24.0586 22.9062 23.8984L22.668 23.6562C22.5742 23.5664 22.4727 23.4336 22.3555 23.2578C22.0391 23.7344 21.6328 24.1484 21.1406 24.5C20.6445 24.8516 20.1133 25.1094 19.5508 25.2695C18.9844 25.4297 18.4023 25.5234 17.8047 25.5469C17.207 25.5703 16.6328 25.4883 16.0898 25.293C15.5469 25.0977 15.0547 24.8359 14.6211 24.5C14.1875 24.1641 13.8437 23.7109 13.5859 23.1328C13.3281 22.5547 13.1992 21.9023 13.1992 21.1641C13.1992 20.4844 13.3164 19.8633 13.5469 19.3008C13.7812 18.7344 14.0781 18.2656 14.4453 17.8906C14.8125 17.5156 15.2539 17.1797 15.7734 16.8867C16.293 16.5938 16.8047 16.3633 17.3047 16.1953C17.8047 16.0312 18.3438 15.8906 18.9258 15.7773C19.5078 15.6641 20.0039 15.5898 20.418 15.5547C20.832 15.5195 21.2461 15.4922 21.6602 15.4766V13.9375C21.6602 13.4102 21.5703 13.0195 21.3984 12.7617ZM28.4492 27.5898C28.3398 27.7188 28.1562 27.8945 27.8984 28.1172C27.6406 28.3398 27.2422 28.6133 26.707 28.9414C26.1719 29.2695 25.582 29.5664 24.9492 29.8359C24.3125 30.1055 23.5312 30.3398 22.6016 30.5391C21.6758 30.7383 20.7188 30.8359 19.7383 30.8359C18.7461 30.8359 17.7578 30.7109 16.7656 30.4609C15.7734 30.2109 14.9062 29.9023 14.1562 29.5352C13.4102 29.168 12.6875 28.7461 12.0039 28.2773C11.3164 27.8047 10.7656 27.3828 10.3477 27.0078C9.93359 26.6328 9.58203 26.2773 9.30078 25.9492C9.23438 25.875 9.19141 25.8086 9.17578 25.75C9.16016 25.6914 9.16406 25.6406 9.1875 25.6055C9.21094 25.5703 9.24609 25.543 9.28906 25.5195C9.33573 25.4988 9.38704 25.4908 9.4378 25.4963C9.48855 25.5018 9.53696 25.5206 9.57812 25.5508C11.1758 26.4961 12.4258 27.1641 13.3242 27.5586C16.5625 28.9805 19.8867 29.3438 23.2969 28.6484C24.8789 28.3242 26.5039 27.7812 28.1758 27.0156C28.3008 26.9687 28.4102 26.957 28.5 26.9805C28.5898 27.0039 28.6367 27.0742 28.6367 27.1914C28.6367 27.3008 28.5742 27.4375 28.4492 27.5898ZM30.7891 26.457C30.7188 26.8906 30.5977 27.3008 30.4336 27.6992C30.1523 28.3672 29.7969 28.8711 29.375 29.1992C29.2344 29.3125 29.125 29.3477 29.0508 29.3086C28.9766 29.2695 28.9766 29.1719 29.0508 29.0195C29.2266 28.6562 29.4102 28.168 29.6055 27.5469C29.8008 26.9297 29.8281 26.5312 29.6875 26.3555C29.6445 26.2969 29.582 26.2539 29.4922 26.2148C29.4062 26.1797 29.293 26.1562 29.1562 26.1406C29.0195 26.125 28.8945 26.1172 28.7891 26.1094C28.6797 26.1016 28.5352 26.1016 28.3516 26.1094C28.168 26.1172 28.0391 26.125 27.957 26.1328C27.7346 26.1545 27.5119 26.1741 27.2891 26.1914C27.2383 26.1992 27.1836 26.207 27.1289 26.2109C27.0703 26.2148 27.0234 26.2188 26.9922 26.2227L26.8867 26.2344C26.8477 26.2383 26.8203 26.2422 26.8008 26.2422H26.6758L26.6367 26.2344L26.6133 26.2148L26.5938 26.1797C26.543 26.0508 26.7383 25.8906 27.1797 25.6953C27.6211 25.5 28.0508 25.3789 28.4648 25.332C28.8477 25.2734 29.2969 25.2734 29.8125 25.3203C30.3281 25.3672 30.6445 25.4648 30.7617 25.6094C30.8516 25.7461 30.8594 26.0273 30.7891 26.457Z" fill="white"/>
</svg>
