<svg width="40" height="40" viewBox="0 0 40 40" fill="none" xmlns="http://www.w3.org/2000/svg">
<g clip-path="url(#clip0)">
<path d="M24.531 31.1587H31.8223V28.9525H24.5235V31.1587H24.531ZM8.17603 31.1587H15.4673V28.9525H8.17603V31.1587H8.18229H8.17603ZM-0.000214844 31.1587H7.29104V28.9525H-0.000214844V31.1587ZM16.3485 31.1587H23.6523V28.9525H16.3485V31.1587ZM32.7085 31.1587H39.9998V28.9525H32.7085V31.1587ZM32.7085 28.2887H39.9998V26.0875H32.7085V28.3212V28.2887ZM16.3535 28.2887H23.6648V26.0875H16.3485V28.3012L16.3535 28.2887ZM-0.000214844 28.2887H7.30478V26.0875H-0.000214844V28.3212V28.2887ZM8.18353 28.2887H15.4823V26.0875H8.18353V28.3212V28.2887ZM24.5698 28.2887H31.8685V26.0875H24.5385V28.3212L24.5635 28.3012L24.5698 28.2887ZM24.5698 25.4162H31.8685V23.2162H24.5385V25.4362H24.5635L24.5698 25.4162ZM8.22978 25.4162H15.4948V23.2162H8.18353V25.4362H8.20978L8.22978 25.4162ZM0.0510352 25.4162H7.31729V23.2162H-0.00146484V25.4362H0.0247852L0.0510352 25.4162ZM16.3998 25.4162H23.6985V23.2162H16.3673V25.4362H16.3935L16.3998 25.4162ZM32.7735 25.4162H39.9998V23.2162H32.7085V25.4362H32.7535L32.7735 25.4162ZM32.7735 22.5512H39.9998V20.3312H32.7085V22.545H32.7535L32.7735 22.5512ZM16.4248 22.5512H23.6985V20.3312H16.3598V22.545H16.4198L16.4248 22.5512ZM0.0785352 22.5512H7.32978V20.3312H-0.000214844V22.545H0.0510352L0.0785352 22.5512ZM24.621 22.5512H31.926V20.3312H24.5448V22.545H24.616L24.621 22.5512ZM24.621 19.6862H31.926V17.4662H24.5448V19.6675H24.616L24.621 19.6862ZM0.0785352 19.6862H7.32978V17.4862H-0.000214844V19.6862H0.0785352ZM16.4248 19.6862H23.7235V17.4862H16.3485V19.6862H16.4248ZM32.7735 19.6862H39.9998V17.4662H32.7085V19.6812H32.7535L32.7735 19.6862ZM16.3485 16.7962H23.6523V14.59H16.3485V16.7962ZM32.7085 16.7962H39.9998V14.59H32.7085V16.7962ZM16.3485 13.925H23.6523V11.7112H16.3485V13.925ZM32.7085 13.925H39.9998V11.7112H32.7085V13.925ZM32.7085 11.0487H39.9998V8.84247H32.7085V11.0487Z" fill="white"/>
</g>
<defs>
<clipPath id="clip0">
<rect width="40" height="40" fill="white"/>
</clipPath>
</defs>
</svg>
