<svg width="40" height="41" viewBox="0 0 40 41" fill="none" xmlns="http://www.w3.org/2000/svg">
<path d="M17.6403 28.7841L16.1739 24.7981C16.1739 24.7981 13.791 27.4557 10.2177 27.4557C7.05583 27.4557 4.81094 24.7065 4.81094 20.3078C4.81094 14.6721 7.6514 12.6561 10.4468 12.6561C14.4786 12.6561 15.7614 15.2677 16.8613 18.6126L18.3277 23.1946C19.7936 27.6387 22.5428 31.2126 30.4693 31.2126C36.1513 31.2126 39.9999 29.4716 39.9999 24.8899C39.9999 21.1786 37.8919 19.2541 33.9514 18.3376L31.0191 17.6962C29.0033 17.238 28.4077 16.4132 28.4077 15.0386C28.4077 13.4808 29.6445 12.5643 31.6608 12.5643C33.8601 12.5643 35.0512 13.3892 35.2347 15.3593L39.8165 14.8094C39.4499 10.6858 36.6093 8.99048 31.9358 8.99048C27.8123 8.99048 23.7801 10.5483 23.7801 15.5426C23.7801 18.6583 25.2922 20.6287 29.0947 21.545L32.2108 22.2778C34.5475 22.8278 35.3262 23.7899 35.3262 25.1188C35.3262 26.8138 33.6768 27.5012 30.5611 27.5012C25.9334 27.5012 24.0094 25.0728 22.9095 21.7279L21.3975 17.1463C19.4734 11.1898 16.4032 8.99052 10.3092 8.99052C3.57401 8.99052 0 13.2516 0 20.4909C0 27.4555 3.57405 31.2125 9.98888 31.2125C15.1657 31.2125 17.6404 28.7841 17.6404 28.7841H17.6403Z" fill="white"/>
</svg>
