<svg width="40" height="40" viewBox="0 0 40 40" fill="none" xmlns="http://www.w3.org/2000/svg">
<path d="M20.0164 3.36499C10.8581 3.36499 3.36475 10.8583 3.36475 20.0167C3.36475 29.1733 10.8581 36.6667 20.0164 36.6667C29.1731 36.6667 36.6664 29.1733 36.6664 20.0167C36.6664 10.8583 29.2564 3.36499 20.0164 3.36499ZM27.6747 27.425C27.3431 27.9233 26.7597 28.0917 26.2581 27.76C22.3431 25.3433 17.4314 24.8433 11.6031 26.175C11.0231 26.345 10.5231 25.9283 10.3564 25.4267C10.1881 24.8433 10.6047 24.3467 11.1064 24.1783C17.4314 22.7617 22.9281 23.3467 27.2564 26.0117C27.8397 26.26 27.9231 26.925 27.6747 27.425ZM29.6747 22.8467C29.2564 23.4283 28.5081 23.6783 27.9231 23.2617C23.4281 20.5183 16.6031 19.6817 11.3581 21.3483C10.6947 21.5167 9.94141 21.1817 9.77641 20.5183C9.60808 19.8483 9.94308 19.0983 10.6081 18.9317C16.6847 17.1017 24.1797 18.0183 29.3397 21.1833C29.8397 21.4317 30.0897 22.2633 29.6747 22.8467ZM29.8397 18.1817C24.5114 15.02 15.6031 14.6867 10.5231 16.2717C10.1368 16.383 9.72239 16.3412 9.36608 16.155C9.00977 15.9687 8.7389 15.6524 8.60975 15.2717C8.49645 14.8849 8.53708 14.4693 8.72314 14.1117C8.9092 13.7542 9.22629 13.4825 9.60808 13.3533C15.5197 11.605 25.2614 11.9367 31.4231 15.605C32.1714 16.02 32.4214 17.02 32.0047 17.7683C31.5881 18.3517 30.5897 18.5983 29.8397 18.1817Z" fill="white"/>
</svg>
