<svg width="40" height="40" viewBox="0 0 40 40" fill="none" xmlns="http://www.w3.org/2000/svg">
<path d="M20.1352 21.5533C18.8352 24.2383 17.0535 27.8733 16.1702 29.5133C15.3152 31.0067 14.6035 30.8067 14.0402 29.5533C12.0868 24.9367 8.0735 16.845 6.18683 12.3083C5.8385 11.4717 5.57516 10.9367 5.32683 10.725C5.07516 10.5167 4.55683 10.3917 3.76683 10.3467C3.47683 10.315 3.3335 10.245 3.3335 10.1283V9.49667L3.40516 9.43334C4.69016 9.42667 10.9102 9.43334 10.9102 9.43334L10.9802 9.49667V10.1C10.9802 10.2667 10.8752 10.345 10.6668 10.345L9.8835 10.385C9.21183 10.4283 8.87516 10.6133 8.87516 10.9933C8.87516 11.18 8.9485 11.4517 9.10683 11.8283C10.6102 15.505 15.8018 26.4483 15.8018 26.4483L15.9918 26.5133L19.3418 19.8267L18.6718 18.3433L16.3668 13.8083C16.3668 13.8083 15.9252 12.9 15.7718 12.5967C14.7602 10.5917 14.7835 10.4883 13.7618 10.3517C13.4735 10.3183 13.3268 10.2817 13.3268 10.1433V9.49334L13.4102 9.43167H19.3735L19.5318 9.48167V10.1083C19.5318 10.255 19.4268 10.3167 19.2168 10.3167L18.7885 10.3817C17.6885 10.4667 17.8702 10.9117 18.6002 12.3583L20.7985 16.8783L23.2402 12.0083C23.6468 11.12 23.5635 10.895 23.3952 10.6933C23.2985 10.5767 22.9702 10.385 22.2668 10.36L21.9868 10.33C21.9134 10.3301 21.8421 10.3048 21.7852 10.2583C21.7558 10.2389 21.7319 10.2124 21.7155 10.1812C21.6992 10.15 21.6911 10.1152 21.6918 10.08V9.485L21.7768 9.42334C23.5102 9.41167 27.3952 9.42334 27.3952 9.42334L27.4785 9.485V10.0917C27.4785 10.26 27.3952 10.3383 27.2102 10.3383C26.3118 10.3783 26.1235 10.47 25.7868 10.9483C25.6202 11.205 25.2652 11.765 24.8902 12.39L21.6918 18.3283L21.6018 18.515L25.4818 26.4533L25.7185 26.5217L31.8268 12.015C32.0418 11.4283 32.0052 11.0117 31.7385 10.7717C31.4635 10.5317 31.2568 10.3917 30.5452 10.3617L29.9618 10.3383C29.8865 10.341 29.8123 10.3194 29.7502 10.2767C29.7215 10.2588 29.6975 10.2344 29.6801 10.2054C29.6627 10.1764 29.6524 10.1437 29.6502 10.11V9.50834L29.7318 9.445H36.6268L36.6835 9.50834V10.115C36.6835 10.2817 36.5802 10.365 36.3935 10.365C35.4918 10.405 34.8268 10.615 34.3885 10.95C33.9502 11.305 33.6135 11.8067 33.3652 12.4333C33.3652 12.4333 27.7468 25.3 25.8252 29.5817C25.0952 30.9817 24.3618 30.8567 23.7368 29.5383C22.9418 27.91 21.2735 24.2783 20.0602 21.6033L20.1352 21.5533Z" fill="white"/>
</svg>
